<svg xmlns="http://www.w3.org/2000/svg" xmlns:xlink="http://www.w3.org/1999/xlink" width="30" height="30" viewBox="0 0 30 30">
  <rect width="100%" height="100%" fill="#81b3d2" />
  <path fill="#ffffff" d="M18.158407720432706,5.770244005569329 c2.1660231918096544,-0.6228124141693121 3.835853533744812,0.33903095126152055 4.59813944041729,1.4804351538419724 c0.8651238030195249,-0.29005981385707885 1.710965500473976,-0.6039773613214494 2.5850876194238666,-0.8890144944190989 a3.0144358366727833,2.944546595215798 0 0 1 -1.1016509646177295,2.22002489566803 c0.880549487471582,0.21346393227577226 1.6762577104568481,-0.6165340632200246 1.6762577104568481,-0.6165340632200246 c-0.21724505603313476,1.2556701898574831 -1.2931865465641021,2.2451382994651796 -2.0091953998804093,2.5414764642715455 c-0.2969444257020952,8.47577378153801 -4.081379011273384,14.084852519631387 -12.953718518614771,13.915337044000626 h-0.5733212721347818 c-0.5270442187786106,0 -5.352712504863739,-0.5776082873344426 -6.296250203847885,-2.36944964826107 c2.9193107825517655,0.24611135721206684 5.004349130988121,-0.5298928201198579 6.032728094458581,-1.4779238134622574 c-1.2340547561645512,-0.37670105695724526 -3.4437840539217,-0.5989546805620196 -3.8294261652231216,-3.704227060079575 c0.4486303228139881,0.1331010401248932 0.725007169246674,0.2862928032875064 1.5297137081623076,0.14942475259304064 C6.274203323827215,15.944939553984511 4.563237823353239,15.044624027856697 4.658362877474256,12.282149610170235 c0.3663600057363514,0.41185982227325485 1.3716004425287247,0.6730392217636112 1.7225347638130186,0.5926763296127321 C5.477209627137609,12.572209424027314 3.848514443741269,8.655774101861825 5.231684149609037,6.656747159608711 c2.336991194486618,2.3280125319957734 4.801244285702706,4.527946704626083 9.193707933425904,4.737643626332283 C14.692770613537258,8.515139040597786 15.886975684867329,6.585173958786834 18.158407720432706,5.770244005569329 z" /></svg>
